<mxfile host="65bd71144e" modified="2020-12-14T18:47:06.774Z" agent="5.0 (Macintosh; Intel Mac OS X 10_15_6) AppleWebKit/537.36 (KHTML, like Gecko) Code/1.52.0 Chrome/83.0.4103.122 Electron/9.3.5 Safari/537.36" version="13.10.0" etag="Nn7bDWOKydL0e07ROwko" type="embed">
    <diagram id="jkouDdpkrpbUF15D6mqs" name="Page-1">
        <mxGraphModel dx="837" dy="980" grid="1" gridSize="10" guides="1" tooltips="1" connect="1" arrows="1" fold="1" page="1" pageScale="1" pageWidth="827" pageHeight="1169" math="0" shadow="0">
            <root>
                <mxCell id="0"/>
                <mxCell id="1" parent="0"/>
                <mxCell id="3" value="App.js" style="text;html=1;align=center;verticalAlign=middle;resizable=0;points=[];autosize=1;" vertex="1" parent="1">
                    <mxGeometry x="240" y="180" width="50" height="20" as="geometry"/>
                </mxCell>
                <mxCell id="17" value="" style="group;strokeColor=none;" vertex="1" connectable="0" parent="1">
                    <mxGeometry x="254" y="40" width="150" height="130" as="geometry"/>
                </mxCell>
                <mxCell id="13" value="" style="rounded=0;whiteSpace=wrap;html=1;strokeColor=#FF0080;" vertex="1" parent="17">
                    <mxGeometry x="10" y="20" width="140" height="110" as="geometry"/>
                </mxCell>
                <mxCell id="14" value="Menu.js" style="text;html=1;align=center;verticalAlign=middle;resizable=0;points=[];autosize=1;strokeColor=none;" vertex="1" parent="17">
                    <mxGeometry width="60" height="20" as="geometry"/>
                </mxCell>
                <mxCell id="15" value="Profile.js" style="rounded=0;whiteSpace=wrap;html=1;strokeColor=#FF0080;" vertex="1" parent="17">
                    <mxGeometry x="20" y="30" width="120" height="40" as="geometry"/>
                </mxCell>
                <mxCell id="16" value="MenuNav.js" style="rounded=0;whiteSpace=wrap;html=1;strokeColor=#FF0080;" vertex="1" parent="17">
                    <mxGeometry x="20" y="80" width="120" height="40" as="geometry"/>
                </mxCell>
                <mxCell id="18" value="" style="group;strokeColor=#009999;" vertex="1" connectable="0" parent="1">
                    <mxGeometry x="250" y="200" width="170" height="360" as="geometry"/>
                </mxCell>
                <mxCell id="2" value="" style="rounded=0;whiteSpace=wrap;html=1;strokeColor=#CCCCCC;" vertex="1" parent="18">
                    <mxGeometry width="170" height="360" as="geometry"/>
                </mxCell>
                <mxCell id="4" value="" style="rounded=0;whiteSpace=wrap;html=1;strokeColor=#CCCCCC;" vertex="1" parent="18">
                    <mxGeometry x="15" y="20" width="140" height="320" as="geometry"/>
                </mxCell>
                <mxCell id="5" value="Administration.js" style="text;html=1;align=center;verticalAlign=middle;resizable=0;points=[];autosize=1;" vertex="1" parent="18">
                    <mxGeometry x="10" width="100" height="20" as="geometry"/>
                </mxCell>
                <mxCell id="7" value="MainAdmin.js" style="rounded=0;whiteSpace=wrap;html=1;strokeColor=#0066CC;" vertex="1" parent="18">
                    <mxGeometry x="25" y="130" width="120" height="40" as="geometry"/>
                </mxCell>
                <mxCell id="8" value="TopBar.js" style="rounded=0;whiteSpace=wrap;html=1;strokeColor=#CCCCCC;" vertex="1" parent="18">
                    <mxGeometry x="25" y="80" width="120" height="40" as="geometry"/>
                </mxCell>
                <mxCell id="9" value="Menu.js" style="rounded=0;whiteSpace=wrap;html=1;strokeColor=#FF0080;" vertex="1" parent="18">
                    <mxGeometry x="25" y="30" width="120" height="40" as="geometry"/>
                </mxCell>
                <mxCell id="10" value="Planner.js" style="rounded=0;whiteSpace=wrap;html=1;strokeColor=#FF0000;" vertex="1" parent="18">
                    <mxGeometry x="25" y="180" width="120" height="40" as="geometry"/>
                </mxCell>
                <mxCell id="11" value="Chat.js" style="rounded=0;whiteSpace=wrap;html=1;strokeColor=#00CCCC;" vertex="1" parent="18">
                    <mxGeometry x="25" y="230" width="120" height="40" as="geometry"/>
                </mxCell>
                <mxCell id="12" value="Submenu.js" style="rounded=0;whiteSpace=wrap;html=1;strokeColor=#CCCCCC;" vertex="1" parent="18">
                    <mxGeometry x="25" y="280" width="120" height="40" as="geometry"/>
                </mxCell>
                <mxCell id="55" style="edgeStyle=orthogonalEdgeStyle;rounded=0;orthogonalLoop=1;jettySize=auto;html=1;exitX=0;exitY=0.5;exitDx=0;exitDy=0;strokeColor=#0066CC;" edge="1" parent="1" source="25" target="7">
                    <mxGeometry relative="1" as="geometry"/>
                </mxCell>
                <mxCell id="56" value="" style="group" vertex="1" connectable="0" parent="1">
                    <mxGeometry x="650" y="260" width="150" height="290" as="geometry"/>
                </mxCell>
                <mxCell id="40" value="" style="rounded=0;whiteSpace=wrap;html=1;strokeColor=#CC6600;" vertex="1" parent="56">
                    <mxGeometry x="10" y="20" width="140" height="270" as="geometry"/>
                </mxCell>
                <mxCell id="41" value="UserForm.js" style="text;html=1;align=center;verticalAlign=middle;resizable=0;points=[];autosize=1;" vertex="1" parent="56">
                    <mxGeometry width="80" height="20" as="geometry"/>
                </mxCell>
                <mxCell id="43" value="" style="rounded=0;whiteSpace=wrap;html=1;strokeColor=#CC6600;" vertex="1" parent="56">
                    <mxGeometry x="20" y="70" width="120" height="200" as="geometry"/>
                </mxCell>
                <mxCell id="45" value="Form.js" style="text;html=1;align=center;verticalAlign=middle;resizable=0;points=[];autosize=1;strokeColor=none;" vertex="1" parent="56">
                    <mxGeometry x="20" y="75" width="60" height="20" as="geometry"/>
                </mxCell>
                <mxCell id="46" value="FormPath.js" style="rounded=0;whiteSpace=wrap;html=1;strokeColor=#CC6600;" vertex="1" parent="56">
                    <mxGeometry x="20" y="30" width="120" height="30" as="geometry"/>
                </mxCell>
                <mxCell id="42" value="FormNav.js" style="rounded=0;whiteSpace=wrap;html=1;strokeColor=#CC6600;" vertex="1" parent="56">
                    <mxGeometry x="30" y="100" width="100" height="30" as="geometry"/>
                </mxCell>
                <mxCell id="47" value="PersonForm.js" style="rounded=0;whiteSpace=wrap;html=1;strokeColor=#CC6600;" vertex="1" parent="56">
                    <mxGeometry x="30" y="140" width="100" height="30" as="geometry"/>
                </mxCell>
                <mxCell id="48" value="PrivateForm.js" style="rounded=0;whiteSpace=wrap;html=1;strokeColor=#CC6600;" vertex="1" parent="56">
                    <mxGeometry x="30" y="220" width="100" height="30" as="geometry"/>
                </mxCell>
                <mxCell id="49" value="WorkForm.js" style="rounded=0;whiteSpace=wrap;html=1;strokeColor=#CC6600;" vertex="1" parent="56">
                    <mxGeometry x="30" y="180" width="100" height="30" as="geometry"/>
                </mxCell>
                <mxCell id="101" value="" style="group" vertex="1" connectable="0" parent="1">
                    <mxGeometry x="254" y="580" width="162" height="230" as="geometry"/>
                </mxCell>
                <mxCell id="89" value="" style="rounded=0;whiteSpace=wrap;html=1;strokeColor=#00CCCC;" vertex="1" parent="101">
                    <mxGeometry x="2" y="20" width="160" height="210" as="geometry"/>
                </mxCell>
                <mxCell id="90" value="Chat.js" style="text;html=1;align=center;verticalAlign=middle;resizable=0;points=[];autosize=1;strokeColor=none;" vertex="1" parent="101">
                    <mxGeometry width="50" height="20" as="geometry"/>
                </mxCell>
                <mxCell id="91" value="" style="rounded=0;whiteSpace=wrap;html=1;strokeColor=#00CCCC;" vertex="1" parent="101">
                    <mxGeometry x="12" y="70" width="140" height="150" as="geometry"/>
                </mxCell>
                <mxCell id="92" value="MessageBoard.js" style="text;html=1;align=center;verticalAlign=middle;resizable=0;points=[];autosize=1;strokeColor=none;" vertex="1" parent="101">
                    <mxGeometry x="12" y="73" width="110" height="20" as="geometry"/>
                </mxCell>
                <mxCell id="93" value="ChatNav.js" style="rounded=0;whiteSpace=wrap;html=1;strokeColor=#00CCCC;" vertex="1" parent="101">
                    <mxGeometry x="12" y="30" width="140" height="30" as="geometry"/>
                </mxCell>
                <mxCell id="94" value="" style="rounded=0;whiteSpace=wrap;html=1;strokeColor=#00CCCC;" vertex="1" parent="101">
                    <mxGeometry x="22" y="100" width="120" height="70" as="geometry"/>
                </mxCell>
                <mxCell id="96" value="NewMesaage.js" style="rounded=0;whiteSpace=wrap;html=1;strokeColor=#00CCCC;" vertex="1" parent="101">
                    <mxGeometry x="22" y="180" width="120" height="30" as="geometry"/>
                </mxCell>
                <mxCell id="97" value="DeleteModal.js" style="rounded=0;whiteSpace=wrap;html=1;strokeColor=#00CCCC;" vertex="1" parent="101">
                    <mxGeometry x="30" y="130" width="102" height="30" as="geometry"/>
                </mxCell>
                <mxCell id="98" value="Message.js" style="text;html=1;align=center;verticalAlign=middle;resizable=0;points=[];autosize=1;" vertex="1" parent="101">
                    <mxGeometry x="22" y="104" width="80" height="20" as="geometry"/>
                </mxCell>
                <mxCell id="102" value="" style="group" vertex="1" connectable="0" parent="1">
                    <mxGeometry x="10" y="205" width="210" height="350" as="geometry"/>
                </mxCell>
                <mxCell id="70" value="" style="rounded=0;whiteSpace=wrap;html=1;strokeColor=#FF0000;" vertex="1" parent="102">
                    <mxGeometry y="20" width="210" height="330" as="geometry"/>
                </mxCell>
                <mxCell id="71" value="Planner.js" style="text;html=1;align=center;verticalAlign=middle;resizable=0;points=[];autosize=1;" vertex="1" parent="102">
                    <mxGeometry x="30" width="70" height="20" as="geometry"/>
                </mxCell>
                <mxCell id="72" value="" style="rounded=0;whiteSpace=wrap;html=1;strokeColor=#FF0000;" vertex="1" parent="102">
                    <mxGeometry x="10" y="70" width="190" height="270" as="geometry"/>
                </mxCell>
                <mxCell id="73" value="MainPlanner.js" style="text;html=1;align=center;verticalAlign=middle;resizable=0;points=[];autosize=1;" vertex="1" parent="102">
                    <mxGeometry x="16" y="75" width="90" height="20" as="geometry"/>
                </mxCell>
                <mxCell id="74" value="NewTask.js" style="rounded=0;whiteSpace=wrap;html=1;strokeColor=#FF0000;" vertex="1" parent="102">
                    <mxGeometry x="10" y="30" width="190" height="30" as="geometry"/>
                </mxCell>
                <mxCell id="75" value="FilterTasks.js" style="rounded=0;whiteSpace=wrap;html=1;strokeColor=#FF0000;" vertex="1" parent="102">
                    <mxGeometry x="20" y="100" width="170" height="30" as="geometry"/>
                </mxCell>
                <mxCell id="76" value="PlannerNav.js" style="rounded=0;whiteSpace=wrap;html=1;strokeColor=#FF0000;" vertex="1" parent="102">
                    <mxGeometry x="20" y="140" width="170" height="30" as="geometry"/>
                </mxCell>
                <mxCell id="78" value="" style="rounded=0;whiteSpace=wrap;html=1;strokeColor=#FF0000;" vertex="1" parent="102">
                    <mxGeometry x="20" y="183" width="168" height="147" as="geometry"/>
                </mxCell>
                <mxCell id="80" value="PlannerList.js" style="text;html=1;align=center;verticalAlign=middle;resizable=0;points=[];autosize=1;" vertex="1" parent="102">
                    <mxGeometry x="20" y="183" width="90" height="20" as="geometry"/>
                </mxCell>
                <mxCell id="77" value="" style="rounded=0;whiteSpace=wrap;html=1;strokeColor=#FF0000;" vertex="1" parent="102">
                    <mxGeometry x="30" y="210" width="148" height="110" as="geometry"/>
                </mxCell>
                <mxCell id="81" value="Card.js" style="text;html=1;align=center;verticalAlign=middle;resizable=0;points=[];autosize=1;" vertex="1" parent="102">
                    <mxGeometry x="30" y="210" width="50" height="20" as="geometry"/>
                </mxCell>
                <mxCell id="82" value="" style="rounded=0;whiteSpace=wrap;html=1;strokeColor=#FF0000;" vertex="1" parent="102">
                    <mxGeometry x="40" y="240" width="128" height="70" as="geometry"/>
                </mxCell>
                <mxCell id="84" value="&lt;span&gt;EditTask.js&lt;/span&gt;" style="text;html=1;align=center;verticalAlign=middle;resizable=0;points=[];autosize=1;" vertex="1" parent="102">
                    <mxGeometry x="43" y="244" width="70" height="20" as="geometry"/>
                </mxCell>
                <mxCell id="85" value="DeleteModal.js" style="rounded=0;whiteSpace=wrap;html=1;strokeColor=#FF0000;" vertex="1" parent="102">
                    <mxGeometry x="50" y="270" width="110" height="30" as="geometry"/>
                </mxCell>
                <mxCell id="21" value="" style="rounded=0;whiteSpace=wrap;html=1;strokeColor=#0066CC;" vertex="1" parent="1">
                    <mxGeometry x="470" y="20" width="160" height="530" as="geometry"/>
                </mxCell>
                <mxCell id="22" value="MainAdmin.js" style="text;html=1;align=center;verticalAlign=middle;resizable=0;points=[];autosize=1;strokeColor=none;" vertex="1" parent="1">
                    <mxGeometry x="460" width="90" height="20" as="geometry"/>
                </mxCell>
                <mxCell id="23" value="FilterUsers.js" style="rounded=0;whiteSpace=wrap;html=1;strokeColor=#0066CC;" vertex="1" parent="1">
                    <mxGeometry x="480" y="40" width="140" height="40" as="geometry"/>
                </mxCell>
                <mxCell id="24" value="" style="rounded=0;whiteSpace=wrap;html=1;strokeColor=#0066CC;" vertex="1" parent="1">
                    <mxGeometry x="480" y="90" width="140" height="70" as="geometry"/>
                </mxCell>
                <mxCell id="25" value="" style="rounded=0;whiteSpace=wrap;html=1;strokeColor=#0066CC;" vertex="1" parent="1">
                    <mxGeometry x="480" y="170" width="140" height="360" as="geometry"/>
                </mxCell>
                <mxCell id="26" value="Person.js" style="rounded=0;whiteSpace=wrap;html=1;strokeColor=#0066CC;" vertex="1" parent="1">
                    <mxGeometry x="488.75" y="200" width="121.25" height="30" as="geometry"/>
                </mxCell>
                <mxCell id="27" value="Work.js" style="rounded=0;whiteSpace=wrap;html=1;strokeColor=#0066CC;" vertex="1" parent="1">
                    <mxGeometry x="488.75" y="240" width="121.25" height="30" as="geometry"/>
                </mxCell>
                <mxCell id="28" value="Contact.js" style="rounded=0;whiteSpace=wrap;html=1;strokeColor=#0066CC;" vertex="1" parent="1">
                    <mxGeometry x="487.5" y="280" width="122.5" height="30" as="geometry"/>
                </mxCell>
                <mxCell id="29" value="UserCard.js" style="rounded=0;whiteSpace=wrap;html=1;strokeColor=#0066CC;" vertex="1" parent="1">
                    <mxGeometry x="487.5" y="120" width="122.5" height="30" as="geometry"/>
                </mxCell>
                <mxCell id="30" value="&lt;span&gt;UserList.js&lt;/span&gt;" style="text;html=1;resizable=0;autosize=1;align=center;verticalAlign=middle;points=[];fillColor=none;strokeColor=none;rounded=0;" vertex="1" parent="1">
                    <mxGeometry x="480" y="94" width="70" height="20" as="geometry"/>
                </mxCell>
                <mxCell id="32" value="&lt;span&gt;ViewProfile.js&lt;/span&gt;" style="text;html=1;resizable=0;autosize=1;align=center;verticalAlign=middle;points=[];fillColor=none;strokeColor=none;rounded=0;" vertex="1" parent="1">
                    <mxGeometry x="481" y="174" width="90" height="20" as="geometry"/>
                </mxCell>
                <mxCell id="33" value="WorkLoad.js" style="rounded=0;whiteSpace=wrap;html=1;strokeColor=#0066CC;" vertex="1" parent="1">
                    <mxGeometry x="487.5" y="320" width="122.5" height="30" as="geometry"/>
                </mxCell>
                <mxCell id="34" value="Private.js" style="rounded=0;whiteSpace=wrap;html=1;strokeColor=#0066CC;" vertex="1" parent="1">
                    <mxGeometry x="487.5" y="360" width="122.5" height="30" as="geometry"/>
                </mxCell>
                <mxCell id="35" value="ProfileNav.js" style="rounded=0;whiteSpace=wrap;html=1;strokeColor=#0066CC;" vertex="1" parent="1">
                    <mxGeometry x="486.25" y="400" width="123.75" height="30" as="geometry"/>
                </mxCell>
                <mxCell id="36" value="DeleteModal.js" style="rounded=0;whiteSpace=wrap;html=1;strokeColor=#0066CC;" vertex="1" parent="1">
                    <mxGeometry x="487.5" y="440" width="122.5" height="30" as="geometry"/>
                </mxCell>
                <mxCell id="37" value="UserForm.js" style="rounded=0;whiteSpace=wrap;html=1;strokeColor=#CC6600;" vertex="1" parent="1">
                    <mxGeometry x="486.25" y="480" width="123.75" height="30" as="geometry"/>
                </mxCell>
                <mxCell id="52" style="edgeStyle=orthogonalEdgeStyle;rounded=0;orthogonalLoop=1;jettySize=auto;html=1;strokeColor=#FF0080;" edge="1" parent="1" source="13" target="9">
                    <mxGeometry relative="1" as="geometry">
                        <Array as="points">
                            <mxPoint x="335" y="170"/>
                            <mxPoint x="335" y="170"/>
                        </Array>
                    </mxGeometry>
                </mxCell>
                <mxCell id="87" style="edgeStyle=orthogonalEdgeStyle;rounded=0;orthogonalLoop=1;jettySize=auto;html=1;strokeColor=#FF0000;" edge="1" parent="1" source="70" target="10">
                    <mxGeometry relative="1" as="geometry">
                        <Array as="points">
                            <mxPoint x="220" y="400"/>
                            <mxPoint x="220" y="400"/>
                        </Array>
                    </mxGeometry>
                </mxCell>
                <mxCell id="100" style="edgeStyle=orthogonalEdgeStyle;rounded=0;orthogonalLoop=1;jettySize=auto;html=1;entryX=1;entryY=0.5;entryDx=0;entryDy=0;exitX=1;exitY=0.5;exitDx=0;exitDy=0;strokeColor=#00CCCC;" edge="1" parent="1" source="89" target="11">
                    <mxGeometry relative="1" as="geometry">
                        <Array as="points">
                            <mxPoint x="450" y="705"/>
                            <mxPoint x="450" y="450"/>
                        </Array>
                    </mxGeometry>
                </mxCell>
                <mxCell id="103" style="edgeStyle=orthogonalEdgeStyle;rounded=0;orthogonalLoop=1;jettySize=auto;html=1;strokeColor=#CC6600;" edge="1" parent="1" source="40" target="37">
                    <mxGeometry relative="1" as="geometry">
                        <Array as="points">
                            <mxPoint x="650" y="495"/>
                            <mxPoint x="650" y="495"/>
                        </Array>
                    </mxGeometry>
                </mxCell>
            </root>
        </mxGraphModel>
    </diagram>
</mxfile>